PathFileType	4	(x/y/z)	S08_PSF_T11
DataRate	CameraRate	NumFrames	NumMarkers	Units	OrigDataRate	OrigDataStartFrame	OrigNumFrames
240	240	4	51	mm	240	331	440
Frame#	Time	Sternum			R.Acromium			L.Acromium			Top.Head			R.ASIS			L.ASIS			R.PSIS			L.PSIS			R.Great.Tro			L.Great.Tro			R.Iliac.Crest			L.Iliac.Crest			V.Sacral			R.Thigh.Upper.Post			R.Thigh.Lower.Ant			R.Thigh.Lower.Post			R.Thigh.Upper.Ant			R.Knee.Lat			R.Knee.Med			R.Shank.Upper.Post			R.Shank.Lower.Ant			R.Shank.Lower.Post			R.Shank.Upper.Ant			R.Ankle.Lat			R.Ankle.Med			R.Heel.Upper			R.Heel.Med			R.Heel.Lat			R.Toe.Lat			R.Toe.Med			R.Toe.Tip			L.Thigh.Upper.Post			L.Thigh.Lower.Ant			L.Thigh.Lower.Post			L.Thigh.Upper.Ant			L.Knee.Lat			L.Knee.Med			L.Shank.Upper.Post			L.Shank.Lower.Ant			L.Shank.Lower.Post			L.Shank.Upper.Ant			L.Ankle.Lat			L.Ankle.Med			L.Heel.Upper			L.Heel.Med			L.Heel.Lat			L.Toe.Lat			L.Toe.Med			L.Toe.Tip			Cervical.Spine			Back			
		X1	Y1	Z1	X2	Y2	Z2	X3	Y3	Z3	X4	Y4	Z4	X5	Y5	Z5	X6	Y6	Z6	X7	Y7	Z7	X8	Y8	Z8	X9	Y9	Z9	X10	Y10	Z10	X11	Y11	Z11	X12	Y12	Z12	X13	Y13	Z13	X14	Y14	Z14	X15	Y15	Z15	X16	Y16	Z16	X17	Y17	Z17	X18	Y18	Z18	X19	Y19	Z19	X20	Y20	Z20	X21	Y21	Z21	X22	Y22	Z22	X23	Y23	Z23	X24	Y24	Z24	X25	Y25	Z25	X26	Y26	Z26	X27	Y27	Z27	X28	Y28	Z28	X29	Y29	Z29	X30	Y30	Z30	X31	Y31	Z31	X32	Y32	Z32	X33	Y33	Z33	X34	Y34	Z34	X35	Y35	Z35	X36	Y36	Z36	X37	Y37	Z37	X38	Y38	Z38	X39	Y39	Z39	X40	Y40	Z40	X41	Y41	Z41	X42	Y42	Z42	X43	Y43	Z43	X44	Y44	Z44	X45	Y45	Z45	X46	Y46	Z46	X47	Y47	Z47	X48	Y48	Z48	X49	Y49	Z49	X50	Y50	Z50	X51	Y51	Z51	

331	1.375	293.91	1236	304.28	190.9	1477.3	479.44	167.62	1501.8	144.82	187.21	1790.5	321.68	276.58	1026.7	411.53	270.52	1031.1	179.2	72.542	1045.7	344.91	73.76	1052.6	251.43	222.48	917.02	483.54	177.45	921.12	118.69	179.36	1091.5	462.38	173.66	1110.3	154.23	57.285	1008	295.97	282.59	724.74	476.22	390.25	659.15	443.49	321.22	643.18	458	357.99	747.42	460.89	383.57	554.38	440.41	361.05	551	312.48	257.27	413.76	456.01	285.07	329.51	438.67	223.62	344.47	453.95	319.55	399.42	443.63	146.6	194.33	429.22	181.66	190.3	351.66	90.049	177.38	380.83	90.18	147.42	355.01	83.006	155.54	416.16	NaN	NaN	NaN	258.77	73.118	355.06	323.98	67.618	402.2	164.19	716.99	136	246.47	625.71	165.43	177.58	627.68	158.28	234.38	710.64	139.61	190.11	522.15	183.84	190.52	525.99	308.59	115.07	345.6	187.15	174.25	254.41	214.07	106.35	274.68	204.51	177.59	328.96	195.29	111.68	102.51	228.68	131.56	106.97	313.48	56.199	77.576	276.81	69.902	42.19	306.64	64.357	50.34	243.34	240.64	39.343	209.43	259.74	39.497	324.74	323.75	55.363	276.13	113.82	1534.1	308.79	60.803	1252.4	321.35
332	1.3792	298.86	1235.8	304.07	195.99	1477.2	479.29	172.74	1501.8	144.7	192.34	1790.4	321.64	281.59	1026.7	411.38	275.28	1030.9	179.04	77.438	1045.7	345.02	78.606	1052.4	251.54	227.75	917.28	483.57	181.96	920.97	118.76	184.36	1091.6	462.32	178.42	1110.1	154.14	62.157	1007.9	296.12	288.71	725.22	476.12	396.54	660.03	443.1	327.61	643.8	457.79	363.98	748.18	460.6	390.31	555.23	440	367.37	551.66	312.33	266.82	411.7	455.75	296.54	328.17	438.38	234.77	341.68	453.66	329.4	398.81	443.32	161.22	189.7	428.88	196.45	186.56	351.31	105.1	171.19	380.46	106.09	141.23	354.66	98.638	149.17	415.78	NaN	NaN	NaN	276.64	71.554	354.88	341.94	67.846	402.06	167.52	717.31	135.83	249.05	625.43	165.44	180.21	627.82	158.25	237.53	710.46	139.62	191.96	522.11	183.78	192.44	525.91	308.57	116.09	345.83	187.15	174.92	254.41	214.04	107.14	274.98	204.46	178.53	328.94	195.27	111.85	102.63	228.76	131.83	107.06	313.53	56.265	77.649	276.83	70.005	42.21	306.67	64.401	50.419	243.36	240.65	39.289	209.44	259.78	39.439	324.73	323.78	55.239	276.09	118.94	1534.1	308.65	65.786	1252.4	321.14
333	1.3833	303.81	1235.7	303.86	201.08	1477	479.14	177.87	1501.8	144.58	197.47	1790.3	321.6	286.61	1026.7	411.24	280.05	1030.6	178.89	82.343	1045.6	345.14	83.462	1052.3	251.65	233.02	917.49	483.6	186.47	920.8	118.82	189.38	1091.6	462.27	183.19	1109.9	154.06	67.037	1007.8	296.27	294.75	725.62	476	402.71	660.8	442.73	333.85	644.34	457.57	369.87	748.83	460.32	396.91	555.98	439.61	373.57	552.22	312.18	276.35	409.55	455.49	307.99	326.8	438.08	245.94	338.82	453.36	339.2	398.15	443.01	175.96	185.08	428.5	211.34	182.88	350.93	120.34	165.05	380.03	122.18	135.11	354.24	114.45	142.84	415.34	NaN	NaN	NaN	294.56	70.11	354.65	359.9	68.175	401.88	170.84	717.62	135.69	251.62	625.14	165.44	182.84	627.96	158.23	240.66	710.26	139.63	193.8	522.06	183.72	194.37	525.83	308.54	117.11	346.06	187.15	175.58	254.41	214.01	107.93	275.27	204.43	179.47	328.91	195.25	112.02	102.75	228.85	132.15	107.16	313.59	56.329	77.72	276.86	70.1	42.229	306.7	64.443	50.496	243.39	240.67	39.235	209.45	259.81	39.377	324.72	323.81	55.116	276.05	124.07	1534.1	308.51	70.775	1252.4	320.92
334	1.3875	308.78	1235.4	303.66	206.18	1476.8	479	183.01	1501.8	144.47	202.6	1790.1	321.57	291.64	1026.7	411.11	284.82	1030.4	178.76	87.259	1045.5	345.26	88.33	1052.1	251.78	238.28	917.65	483.64	190.97	920.62	118.89	194.41	1091.6	462.24	187.97	1109.7	153.99	71.925	1007.6	296.43	300.69	725.95	475.86	408.75	661.45	442.38	339.96	644.79	457.33	375.65	749.39	460.06	403.38	556.63	439.23	379.63	552.68	312.05	285.85	407.34	455.23	319.44	325.43	437.79	257.12	335.93	453.04	348.95	397.44	442.71	190.82	180.5	428.07	226.34	179.25	350.5	135.74	158.97	379.53	138.44	129.09	353.75	130.43	136.57	414.82	NaN	NaN	NaN	312.51	68.799	354.36	377.83	68.618	401.66	174.13	717.9	135.56	254.17	624.83	165.44	185.46	628.09	158.21	243.79	710.04	139.63	195.64	522.01	183.65	196.32	525.74	308.51	118.13	346.29	187.14	176.25	254.41	213.98	108.7	275.56	204.43	180.42	328.88	195.23	112.2	102.86	228.94	132.5	107.28	313.65	56.394	77.788	276.9	70.187	42.246	306.73	64.485	50.57	243.42	240.69	39.181	209.46	259.85	39.312	324.72	323.84	54.995	276.02	129.21	1534	308.37	75.772	1252.3	320.71
